<?xml version="1.0" encoding="utf-8"?>
<!-- Generator: Adobe Illustrator 18.1.1, SVG Export Plug-In . SVG Version: 6.00 Build 0)  -->
<svg version="1.1" id="Layer_1" xmlns="http://www.w3.org/2000/svg" xmlns:xlink="http://www.w3.org/1999/xlink" x="0px" y="0px"
	 viewBox="0 0 25 25" enable-background="new 0 0 25 25" xml:space="preserve">
<g id="Layer_x0020_1_1_">
	<g id="_337751568_1_">
		<polygon id="_337752792_1_" fill="#EE3424" points="21.3,0.7 23.9,10.1 22.2,10.5 19.5,1 		"/>
		<polygon id="_337752840_1_" fill="#E74125" points="14,3 21.3,10.8 19.8,11.6 12.6,3.8 		"/>
		<polygon id="_337752288_1_" fill="#E95A24" points="8.4,7.3 19.1,12.1 18.2,13.4 7.5,8.6 		"/>
		<polygon id="_337752408_1_" fill="#C37730" points="5.6,11.8 17.5,14.4 17,15.8 5.1,13.2 		"/>
		<polygon id="_337752384_1_" fill="#93816E" points="4.8,15.5 17,16.6 16.8,18 4.6,17 		"/>
		<polygon id="_337751640_1_" fill="#676767" points="4.3,19.2 16.6,19.2 16.6,20.7 4.3,20.7 		"/>
		<polygon id="_337751496_1_" fill="#676868" points="2.9,22.9 18,22.9 18,14.4 19.9,14.4 19.9,24.3 1.1,24.3 1.1,14.4 2.9,14.4 		
			"/>
	</g>
</g>
</svg>
